<?xml version="1.0" encoding="UTF-8" standalone="no"?>
<!-- Generator: Adobe Illustrator 19.0.0, SVG Export Plug-In . SVG Version: 6.00 Build 0)  -->

<svg
   xmlns:dc="http://purl.org/dc/elements/1.1/"
   xmlns:cc="http://creativecommons.org/ns#"
   xmlns:rdf="http://www.w3.org/1999/02/22-rdf-syntax-ns#"
   xmlns:svg="http://www.w3.org/2000/svg"
   xmlns="http://www.w3.org/2000/svg"
   xmlns:sodipodi="http://sodipodi.sourceforge.net/DTD/sodipodi-0.dtd"
   xmlns:inkscape="http://www.inkscape.org/namespaces/inkscape"
   version="1.1"
   id="Capa_1"
   x="0px"
   y="0px"
   viewBox="0 0 512 512"
   style="enable-background:new 0 0 512 512;"
   xml:space="preserve"
   inkscape:version="0.48.5 r10040"
   width="100%"
   height="100%"
   sodipodi:docname="2.svg"><metadata
   id="metadata47"><rdf:RDF><cc:Work
       rdf:about=""><dc:format>image/svg+xml</dc:format><dc:type
         rdf:resource="http://purl.org/dc/dcmitype/StillImage" /></cc:Work></rdf:RDF></metadata><defs
   id="defs45">
	

		
	
			
			
		</defs><sodipodi:namedview
   pagecolor="#ffffff"
   bordercolor="#666666"
   borderopacity="1"
   objecttolerance="10"
   gridtolerance="10"
   guidetolerance="10"
   inkscape:pageopacity="0"
   inkscape:pageshadow="2"
   inkscape:window-width="640"
   inkscape:window-height="480"
   id="namedview43"
   showgrid="false"
   inkscape:zoom="0.60317993"
   inkscape:cx="256"
   inkscape:cy="256"
   inkscape:window-x="402"
   inkscape:window-y="153"
   inkscape:window-maximized="0"
   inkscape:current-layer="Capa_1" />
<path
   inkscape:connector-curvature="0"
   id="path11"
   d="m 328.39125,354.275 c 19.41375,0 34.4175,8.8175 34.4175,29.09875 0,20.295 -15.005,29.1125 -31.75875,29.1125 H 183.765 c -19.41375,0 -34.38875,-8.8175 -34.38875,-29.1125 0,-9.245 5.7175,-17.195 10.12625,-22.485 36.6075,-43.6475 76.3025,-83.3425 109.81,-131.85375 7.93625,-11.4625 15.445,-25.13125 15.445,-41.0025 0,-18.07625 -13.6675,-33.9625 -31.75875,-33.9625 -50.71625,0 -26.4675,71.43875 -68.7925,71.43875 -21.1625,0 -32.19875,-14.99 -32.19875,-32.185 0,-55.56625 49.39375,-100.09625 103.6375,-100.09625 54.24375,0 97.89125,35.7125 97.89125,91.71875 0,61.28375 -68.3375,122.155 -105.8275,169.33 h 80.6825 z"
   style="fill:#3b88c3;fill-opacity:1" />
<g
   id="g13">
</g>
<g
   id="g15">
</g>
<g
   id="g17">
</g>
<g
   id="g19">
</g>
<g
   id="g21">
</g>
<g
   id="g23">
</g>
<g
   id="g25">
</g>
<g
   id="g27">
</g>
<g
   id="g29">
</g>
<g
   id="g31">
</g>
<g
   id="g33">
</g>
<g
   id="g35">
</g>
<g
   id="g37">
</g>
<g
   id="g39">
</g>
<g
   id="g41">
</g>
</svg>