<?xml version="1.0" encoding="UTF-8" standalone="no"?>
<!-- Generator: Adobe Illustrator 19.0.0, SVG Export Plug-In . SVG Version: 6.00 Build 0)  -->

<svg
   xmlns:dc="http://purl.org/dc/elements/1.1/"
   xmlns:cc="http://creativecommons.org/ns#"
   xmlns:rdf="http://www.w3.org/1999/02/22-rdf-syntax-ns#"
   xmlns:svg="http://www.w3.org/2000/svg"
   xmlns="http://www.w3.org/2000/svg"
   xmlns:sodipodi="http://sodipodi.sourceforge.net/DTD/sodipodi-0.dtd"
   xmlns:inkscape="http://www.inkscape.org/namespaces/inkscape"
   version="1.1"
   id="Capa_1"
   x="0px"
   y="0px"
   viewBox="0 0 512 512"
   style="enable-background:new 0 0 512 512;"
   xml:space="preserve"
   inkscape:version="0.48.5 r10040"
   width="100%"
   height="100%"
   sodipodi:docname="3.svg"><metadata
   id="metadata47"><rdf:RDF><cc:Work
       rdf:about=""><dc:format>image/svg+xml</dc:format><dc:type
         rdf:resource="http://purl.org/dc/dcmitype/StillImage" /></cc:Work></rdf:RDF></metadata><defs
   id="defs45">
	

		
	
			
			
		</defs><sodipodi:namedview
   pagecolor="#ffffff"
   bordercolor="#666666"
   borderopacity="1"
   objecttolerance="10"
   gridtolerance="10"
   guidetolerance="10"
   inkscape:pageopacity="0"
   inkscape:pageshadow="2"
   inkscape:window-width="640"
   inkscape:window-height="480"
   id="namedview43"
   showgrid="false"
   inkscape:zoom="0.60317993"
   inkscape:cx="256"
   inkscape:cy="256"
   inkscape:window-x="0"
   inkscape:window-y="0"
   inkscape:window-maximized="0"
   inkscape:current-layer="Capa_1" />
<path
   inkscape:connector-curvature="0"
   id="path11"
   d="m 342.8975,173.88125 c 0,27.79 -11.89,52.03875 -36.1525,67.47 31.74375,14.56375 53.78875,44.10375 53.78875,78.93375 0,52.92125 -48.4975,97.45125 -111.11875,97.45125 -65.26625,0 -105.8275,-48.05625 -105.8275,-82.90125 0,-17.195 18.07625,-29.54 33.94875,-29.54 29.995,0 22.94,51.59875 72.76125,51.59875 22.94,0 41.4575,-17.635 41.4575,-41.0175 0,-61.73875 -74.965,-16.3125 -74.965,-68.3525 0,-46.29375 62.60625,-14.99 62.60625,-63.92875 0,-16.7675 -11.89,-29.55375 -31.74375,-29.55375 -41.885,0 -36.1525,43.2075 -66.1475,43.2075 -18.07625,0 -28.6575,-16.3125 -28.6575,-32.62625 0,-34.38875 47.18875,-71.43875 96.1275,-71.43875 63.50125,0 93.9225,46.3075 93.9225,80.6975"
   style="fill:#3b88c3;fill-opacity:1" />
<g
   id="g13">
</g>
<g
   id="g15">
</g>
<g
   id="g17">
</g>
<g
   id="g19">
</g>
<g
   id="g21">
</g>
<g
   id="g23">
</g>
<g
   id="g25">
</g>
<g
   id="g27">
</g>
<g
   id="g29">
</g>
<g
   id="g31">
</g>
<g
   id="g33">
</g>
<g
   id="g35">
</g>
<g
   id="g37">
</g>
<g
   id="g39">
</g>
<g
   id="g41">
</g>
</svg>