<?xml version="1.0" encoding="UTF-8" standalone="no"?>
<!-- Generator: Adobe Illustrator 19.0.0, SVG Export Plug-In . SVG Version: 6.00 Build 0)  -->

<svg
   xmlns:dc="http://purl.org/dc/elements/1.1/"
   xmlns:cc="http://creativecommons.org/ns#"
   xmlns:rdf="http://www.w3.org/1999/02/22-rdf-syntax-ns#"
   xmlns:svg="http://www.w3.org/2000/svg"
   xmlns="http://www.w3.org/2000/svg"
   xmlns:sodipodi="http://sodipodi.sourceforge.net/DTD/sodipodi-0.dtd"
   xmlns:inkscape="http://www.inkscape.org/namespaces/inkscape"
   version="1.1"
   id="Capa_1"
   x="0px"
   y="0px"
   viewBox="0 0 512 512"
   style="enable-background:new 0 0 512 512;"
   xml:space="preserve"
   inkscape:version="0.48.5 r10040"
   width="100%"
   height="100%"
   sodipodi:docname="5.svg"><metadata
   id="metadata47"><rdf:RDF><cc:Work
       rdf:about=""><dc:format>image/svg+xml</dc:format><dc:type
         rdf:resource="http://purl.org/dc/dcmitype/StillImage" /></cc:Work></rdf:RDF></metadata><defs
   id="defs45">
	

		
	
			
			
		</defs><sodipodi:namedview
   pagecolor="#ffffff"
   bordercolor="#666666"
   borderopacity="1"
   objecttolerance="10"
   gridtolerance="10"
   guidetolerance="10"
   inkscape:pageopacity="0"
   inkscape:pageshadow="2"
   inkscape:window-width="640"
   inkscape:window-height="480"
   id="namedview43"
   showgrid="false"
   inkscape:zoom="0.60317993"
   inkscape:cx="256"
   inkscape:cy="256"
   inkscape:window-x="0"
   inkscape:window-y="0"
   inkscape:window-maximized="0"
   inkscape:current-layer="Capa_1" />
<path
   inkscape:connector-curvature="0"
   id="path11"
   d="m 233.0875,206.06625 c 10.58125,-2.205 22.05875,-4.40875 33.08125,-4.40875 53.36125,0 91.27875,42.325 91.27875,93.92375 0,73.6425 -40.56125,122.155 -116.86375,122.155 -31.3025,0 -97.01,-20.295 -97.01,-59.1075 0,-16.29875 13.6675,-29.96625 29.98,-29.96625 17.65,0 38.8125,28.2175 68.3525,28.2175 30.8625,0 46.7625,-29.995 46.7625,-57.77125 0,-26.45375 -15.005,-44.53 -42.34,-44.53 -25.58625,0 -29.55375,14.54875 -52.05375,14.54875 -17.195,0 -26.0125,-13.22625 -26.0125,-20.72125 0,-5.74625 0.88125,-10.14 1.3225,-15.005 L 180.62125,140.36 c 4.835,-34.38875 13.22625,-41.885 34.38875,-41.885 h 106.26875 c 20.295,0 32.185,11.89 32.185,27.77625 0,30.42125 -22.9125,33.06625 -30.8625,33.06625 H 239.7 l -6.6125,46.74875 z"
   style="fill:#3b88c3;fill-opacity:1" />
<g
   id="g13">
</g>
<g
   id="g15">
</g>
<g
   id="g17">
</g>
<g
   id="g19">
</g>
<g
   id="g21">
</g>
<g
   id="g23">
</g>
<g
   id="g25">
</g>
<g
   id="g27">
</g>
<g
   id="g29">
</g>
<g
   id="g31">
</g>
<g
   id="g33">
</g>
<g
   id="g35">
</g>
<g
   id="g37">
</g>
<g
   id="g39">
</g>
<g
   id="g41">
</g>
</svg>