<?xml version="1.0" encoding="UTF-8" standalone="no"?>
<!-- Generator: Adobe Illustrator 19.0.0, SVG Export Plug-In . SVG Version: 6.00 Build 0)  -->

<svg
   xmlns:dc="http://purl.org/dc/elements/1.1/"
   xmlns:cc="http://creativecommons.org/ns#"
   xmlns:rdf="http://www.w3.org/1999/02/22-rdf-syntax-ns#"
   xmlns:svg="http://www.w3.org/2000/svg"
   xmlns="http://www.w3.org/2000/svg"
   xmlns:sodipodi="http://sodipodi.sourceforge.net/DTD/sodipodi-0.dtd"
   xmlns:inkscape="http://www.inkscape.org/namespaces/inkscape"
   version="1.1"
   id="Capa_1"
   x="0px"
   y="0px"
   viewBox="0 0 512 512"
   style="enable-background:new 0 0 512 512;"
   xml:space="preserve"
   inkscape:version="0.48.5 r10040"
   width="100%"
   height="100%"
   sodipodi:docname="8.svg"><metadata
   id="metadata47"><rdf:RDF><cc:Work
       rdf:about=""><dc:format>image/svg+xml</dc:format><dc:type
         rdf:resource="http://purl.org/dc/dcmitype/StillImage" /></cc:Work></rdf:RDF></metadata><defs
   id="defs45">
	

		
	
			
			
		</defs><sodipodi:namedview
   pagecolor="#ffffff"
   bordercolor="#666666"
   borderopacity="1"
   objecttolerance="10"
   gridtolerance="10"
   guidetolerance="10"
   inkscape:pageopacity="0"
   inkscape:pageshadow="2"
   inkscape:window-width="640"
   inkscape:window-height="480"
   id="namedview43"
   showgrid="false"
   inkscape:zoom="0.60317993"
   inkscape:cx="256"
   inkscape:cy="256"
   inkscape:window-x="0"
   inkscape:window-y="0"
   inkscape:window-maximized="0"
   inkscape:current-layer="Capa_1" />
<path
   inkscape:connector-curvature="0"
   id="path11"
   d="m 224.27,184.9025 c 0,19.85375 11.4775,33.5075 31.74375,33.5075 20.295,0 32.21375,-13.65375 32.21375,-33.5075 0,-18.95875 -11.4775,-33.5075 -32.21375,-33.5075 -20.72125,0 -31.74375,14.55 -31.74375,33.5075 m -8.37625,127.8725 c 0,22.5 13.22625,44.1175 40.12125,44.1175 25.15875,0 40.135,-21.6175 40.135,-44.1175 0,-27.77625 -15.8725,-44.08875 -40.135,-44.08875 -25.5575,0 -40.12125,19.39875 -40.12125,44.08875 M 147.1,317.19875 c 0,-35.285 19.41375,-61.2975 47.18875,-76.2875 -20.72125,-14.99 -33.52125,-35.285 -33.52125,-63.06125 0,-51.59875 42.78,-84.665 95.24625,-84.665 51.1575,0 95.715,32.62625 95.715,84.665 0,24.69 -12.37375,49.39375 -33.9775,63.06125 29.995,14.99 47.18875,42.325 47.18875,76.2875 0,61.28375 -49.835,100.5375 -108.9275,100.5375 C 195.17125,417.735 147.1,376.2775 147.1,317.19875"
   style="fill:#3b88c3;fill-opacity:1" />
<g
   id="g13">
</g>
<g
   id="g15">
</g>
<g
   id="g17">
</g>
<g
   id="g19">
</g>
<g
   id="g21">
</g>
<g
   id="g23">
</g>
<g
   id="g25">
</g>
<g
   id="g27">
</g>
<g
   id="g29">
</g>
<g
   id="g31">
</g>
<g
   id="g33">
</g>
<g
   id="g35">
</g>
<g
   id="g37">
</g>
<g
   id="g39">
</g>
<g
   id="g41">
</g>
</svg>