<?xml version="1.0" encoding="UTF-8" standalone="no"?>
<!-- Generator: Adobe Illustrator 19.0.0, SVG Export Plug-In . SVG Version: 6.00 Build 0)  -->

<svg
   xmlns:dc="http://purl.org/dc/elements/1.1/"
   xmlns:cc="http://creativecommons.org/ns#"
   xmlns:rdf="http://www.w3.org/1999/02/22-rdf-syntax-ns#"
   xmlns:svg="http://www.w3.org/2000/svg"
   xmlns="http://www.w3.org/2000/svg"
   xmlns:sodipodi="http://sodipodi.sourceforge.net/DTD/sodipodi-0.dtd"
   xmlns:inkscape="http://www.inkscape.org/namespaces/inkscape"
   version="1.1"
   id="Capa_1"
   x="0px"
   y="0px"
   viewBox="0 0 512 512"
   style="enable-background:new 0 0 512 512;"
   xml:space="preserve"
   inkscape:version="0.48.5 r10040"
   width="100%"
   height="100%"
   sodipodi:docname="x.svg"><metadata
   id="metadata47"><rdf:RDF><cc:Work
       rdf:about=""><dc:format>image/svg+xml</dc:format><dc:type
         rdf:resource="http://purl.org/dc/dcmitype/StillImage" /></cc:Work></rdf:RDF></metadata><defs
   id="defs45">
	

		
	
			
			
		</defs><sodipodi:namedview
   pagecolor="#ffffff"
   bordercolor="#666666"
   borderopacity="1"
   objecttolerance="10"
   gridtolerance="10"
   guidetolerance="10"
   inkscape:pageopacity="0"
   inkscape:pageshadow="2"
   inkscape:window-width="640"
   inkscape:window-height="480"
   id="namedview43"
   showgrid="false"
   inkscape:zoom="0.78931749"
   inkscape:cx="256"
   inkscape:cy="256"
   inkscape:window-x="0"
   inkscape:window-y="0"
   inkscape:window-maximized="0"
   inkscape:current-layer="Capa_1" />
<path
   inkscape:connector-curvature="0"
   id="path11"
   d="m 217.6575,244.4225 -71.42375,-97.01 c -4.4225,-5.73125 -7.06875,-12.345 -7.06875,-19.41375 0,-19.39875 14.54875,-32.185 33.52125,-32.185 11.0225,0 22.485,7.495 28.6575,16.3125 l 54.685,77.61125 54.67,-77.61125 c 6.18625,-8.8175 17.65,-16.3125 28.6575,-16.3125 18.9725,0 33.53625,12.78625 33.53625,32.185 0,7.06875 -2.645,13.68125 -7.05375,19.41375 l -71.4525,97.01 87.31,117.305 c 3.5275,4.85 7.495,13.22625 7.495,22.485 0,18.53125 -14.10875,30.8625 -33.49375,30.8625 -11.91875,0 -20.72125,-5.27625 -27.34875,-14.535 l -72.32,-100.55125 -72.32,100.55125 c -6.61375,9.25875 -15.445,14.535 -27.34875,14.535 -19.39875,0 -33.5075,-12.33125 -33.5075,-30.8625 0,-9.25875 3.9675,-17.635 7.495,-22.485 l 87.31,-117.305 z"
   style="fill:#f44336;fill-opacity:1" />
<g
   id="g13">
</g>
<g
   id="g15">
</g>
<g
   id="g17">
</g>
<g
   id="g19">
</g>
<g
   id="g21">
</g>
<g
   id="g23">
</g>
<g
   id="g25">
</g>
<g
   id="g27">
</g>
<g
   id="g29">
</g>
<g
   id="g31">
</g>
<g
   id="g33">
</g>
<g
   id="g35">
</g>
<g
   id="g37">
</g>
<g
   id="g39">
</g>
<g
   id="g41">
</g>
</svg>