<?xml version="1.0" encoding="UTF-8" standalone="no"?>
<!-- Created with Inkscape (http://www.inkscape.org/) -->

<svg
   xmlns:dc="http://purl.org/dc/elements/1.1/"
   xmlns:cc="http://creativecommons.org/ns#"
   xmlns:rdf="http://www.w3.org/1999/02/22-rdf-syntax-ns#"
   xmlns:svg="http://www.w3.org/2000/svg"
   xmlns="http://www.w3.org/2000/svg"
   xmlns:sodipodi="http://sodipodi.sourceforge.net/DTD/sodipodi-0.dtd"
   xmlns:inkscape="http://www.inkscape.org/namespaces/inkscape"
   width="747.72021"
   height="264.00272"
   id="svg4079"
   version="1.1"
   inkscape:version="0.48.5 r10040"
   sodipodi:docname="title.svg">
  <defs
     id="defs4081" />
  <sodipodi:namedview
     id="base"
     pagecolor="#ffffff"
     bordercolor="#666666"
     borderopacity="1.0"
     inkscape:pageopacity="0.0"
     inkscape:pageshadow="2"
     inkscape:zoom="0.59677734"
     inkscape:cx="376.49144"
     inkscape:cy="-49.955528"
     inkscape:document-units="px"
     inkscape:current-layer="layer1"
     showgrid="false"
     fit-margin-top="0"
     fit-margin-left="0"
     fit-margin-right="0"
     fit-margin-bottom="0"
     inkscape:window-width="1920"
     inkscape:window-height="1018"
     inkscape:window-x="-8"
     inkscape:window-y="-8"
     inkscape:window-maximized="1" />
  <metadata
     id="metadata4084">
    <rdf:RDF>
      <cc:Work
         rdf:about="">
        <dc:format>image/svg+xml</dc:format>
        <dc:type
           rdf:resource="http://purl.org/dc/dcmitype/StillImage" />
        <dc:title></dc:title>
      </cc:Work>
    </rdf:RDF>
  </metadata>
  <g
     inkscape:label="Capa 1"
     inkscape:groupmode="layer"
     id="layer1"
     transform="translate(-773.26019,354.18669)">
    <rect
       style="fill:#ffd05b;fill-opacity:1;fill-rule:nonzero;stroke:none"
       id="rect3147-3"
       width="695.52185"
       height="184.84056"
       x="773.26019"
       y="-275.02454"
       ry="37.916012" />
    <path
       inkscape:connector-curvature="0"
       style="fill:#ffffff"
       d="m 923.28731,-109.00429 -117.60001,0 c -8.4,0 -14.8,-6.8 -14.8,-14.8 l 0,-117.6 c 0,-8.4 6.8,-14.8 14.8,-14.8 l 117.60001,0 c 8.4,0 14.8,6.8 14.8,14.8 l 0,117.6 c 0.4,8 -6.4,14.8 -14.8,14.8 z"
       id="path9-8-1-4" />
    <rect
       x="806.88727"
       y="-240.60426"
       style="fill:#ff7058"
       width="115.6"
       height="115.6"
       id="rect11-9-6-1" />
    <g
       transform="matrix(0.19022049,0,0,0.19022049,819.458,-228.79641)"
       id="g3-8-1"
       style="fill:#ffffff">
      <g
         id="g5-5-3"
         style="fill:#ffffff">
        <path
           inkscape:connector-curvature="0"
           d="m 436.475,103.262 c -19.961,0 -36.141,16.18 -36.141,36.141 0,9.776 3.92,18.613 10.226,25.12 l -74.195,71.928 -76.969,-122.068 c 12.207,-7.695 20.378,-21.202 20.378,-36.7 0,-24.005 -19.46,-43.467 -43.466,-43.467 -24.005,0 -43.465,19.462 -43.465,43.467 0,15.468 8.139,28.961 20.31,36.666 L 136.215,236.45 62.05,164.528 c 6.311,-6.505 10.232,-15.346 10.232,-25.125 0,-19.961 -16.181,-36.141 -36.141,-36.141 -19.96,0 -36.141,16.18 -36.141,36.141 0,19.959 16.181,36.139 36.141,36.139 2.196,0 4.322,-0.272 6.411,-0.647 l 34.27,166.474 h 318.972 l 34.27,-166.474 c 2.088,0.378 4.215,0.647 6.412,0.647 19.96,0 36.14,-16.18 36.14,-36.139 -10e-4,-19.961 -16.181,-36.141 -36.141,-36.141 z"
           id="path7-7-8"
           style="fill:#ffffff" />
      </g>
    </g>
    <g
       transform="matrix(0.19022049,0,0,0.19022049,819.458,-228.79641)"
       id="g9-6-7"
       style="fill:#ffffff">
      <g
         id="g11-1-4"
         style="fill:#ffffff">
        <polygon
           points="62.108,438.398 410.481,438.398 391.714,361.061 80.875,361.061 "
           id="polygon13-8-2"
           style="fill:#ffffff" />
      </g>
    </g>
    <path
       inkscape:connector-curvature="0"
       style="fill:#ffffff"
       d="m 1095.3295,-109.52529 -117.59999,0 c -8.4,0 -14.8,-6.8 -14.8,-14.8 l 0,-117.6 c 0,-8.4 6.8,-14.8 14.8,-14.8 l 117.59999,0 c 8.4,0 14.8,6.8 14.8,14.8 l 0,117.6 c 0,8 -6.8,14.8 -14.8,14.8 z"
       id="path5-4-9-7" />
    <rect
       x="978.52948"
       y="-241.12532"
       style="fill:#84dbff"
       width="115.6"
       height="115.6"
       id="rect7-2-2-7" />
    <path
       inkscape:connector-curvature="0"
       id="path25-7-7-9"
       d="m 1006.5295,-166.72529 17.2,-17.2 -16.8,-16.8 11.6,-11.6 16.8,16.8 17.2,-17.2 13.2,13.2 -17.2,17.2 17.2,16.4 -12,12 -16.8,-16.8 -17.2,17.2 -13.2,-13.2 z"
       style="fill:#ffffff" />
    <path
       inkscape:connector-curvature="0"
       style="fill:#ffffff"
       d="m 1266.5398,-110.13205 -117.6,0 c -8.4,0 -14.8,-6.8 -14.8,-14.8 l 0,-118 c 0,-8.4 6.8,-14.8 14.8,-14.8 l 117.6,0 c 8.4,0 14.8,6.8 14.8,14.8 l 0,117.6 c 0,8.4 -6.8,15.2 -14.8,15.2 z"
       id="path13-3-9-3" />
    <rect
       x="1149.7397"
       y="-241.73204"
       style="fill:#4cdbc4"
       width="115.6"
       height="115.6"
       id="rect15-3-5-1" />
    <path
       inkscape:connector-curvature="0"
       style="fill:#ffffff"
       d="m 1233.8728,-158.46362 c -1.4022,-1.09378 -3.4361,-1.64137 -6.1033,-1.64137 h -26.772 c 0.8542,-1.29895 1.6924,-2.41059 2.5131,-3.33351 1.9145,-2.32481 5.4444,-5.59039 10.5908,-9.79605 5.1454,-4.20566 8.8126,-7.29093 11.0012,-9.25721 2.1879,-1.96559 4.3338,-4.68393 6.4366,-8.15468 2.1029,-3.47005 3.1543,-7.32524 3.1543,-11.56522 0,-2.70049 -0.5049,-5.30819 -1.5129,-7.82136 -1.009,-2.51318 -2.4193,-4.72664 -4.2312,-6.64181 -1.8126,-1.91447 -3.9154,-3.41858 -6.3085,-4.51342 -3.6927,-1.64136 -8.1547,-2.46169 -13.3858,-2.46169 -4.3426,0 -8.1292,0.64107 -11.3601,1.92322 -3.2309,1.28214 -5.8981,2.96657 -8.001,5.05189 -2.1028,2.08603 -3.6846,4.41083 -4.7441,6.97513 -1.0602,2.56429 -1.5899,5.02599 -1.5899,7.38546 0,1.94877 0.564,3.48756 1.6925,4.616 1.1284,1.12844 2.5468,1.69249 4.2568,1.69249 1.9487,0 3.4273,-0.61552 4.4364,-1.8462 1.0079,-1.23102 1.9144,-2.99143 2.7183,-5.28262 0.8028,-2.2905 1.376,-3.69274 1.718,-4.20567 2.5643,-3.93152 6.0855,-5.89815 10.5653,-5.89815 2.1196,0 4.0775,0.47932 5.8722,1.43621 1.7951,0.95758 3.2135,2.29995 4.2568,4.02604 1.0427,1.72715 1.5644,3.68468 1.5644,5.87225 0,2.01774 -0.4874,4.07751 -1.4618,6.17998 -0.9744,2.10248 -2.3938,4.1542 -4.2568,6.15445 -1.864,2.00024 -4.1976,3.99243 -7.0006,5.97482 -1.5731,1.06016 -4.1889,3.27433 -7.847,6.6418 -3.6591,3.36817 -7.7618,7.41102 -12.3088,12.12961 -1.0945,1.16275 -2.1029,2.76141 -3.0261,4.79526 -0.9233,2.03491 -1.3848,3.66718 -1.3848,4.89786 0,1.91517 0.7181,3.58209 2.154,5.00043 1.4362,1.4194 3.4361,2.12839 6.0007,2.12839 h 37.7477 c 2.2565,0 3.9402,-0.58085 5.0519,-1.7436 1.1106,-1.16205 1.6669,-2.5811 1.6669,-4.25678 -4e-4,-1.8798 -0.7017,-3.36711 -2.1032,-4.46195 z"
       id="path5-43-9" />
    <path
       inkscape:connector-curvature="0"
       style="fill:#ffffff"
       d="m 1435.9602,-110.95553 -117.6,0 c -8.4,0 -14.8,-6.8 -14.8,-14.8 l 0,-118.00001 c 0,-8.4 6.8,-14.8 14.8,-14.8 l 117.6,0 c 8.4,0 14.8,6.8 14.8,14.8 l 0,117.60001 c 0.4,8.4 -6.4,15.2 -14.8,15.2 z"
       id="path17-8-1-8" />
    <rect
       x="1319.5601"
       y="-242.55553"
       style="fill:#324a5e"
       width="115.6"
       height="115.6"
       id="rect19-8-2-6" />
    <path
       inkscape:connector-curvature="0"
       id="path27-1-3-5"
       d="m 1344.3602,-210.15554 66,0 0,16.8 -66,0 0,-16.8 z m 0,34 66,0 0,16.8 -66,0 0,-16.8 z"
       style="fill:#ffffff" />
    <text
       xml:space="preserve"
       style="font-size:91.41548157px;font-style:normal;font-variant:normal;font-weight:normal;font-stretch:normal;line-height:125%;letter-spacing:0px;word-spacing:0px;fill:#324a5e;fill-opacity:1;stroke:none;font-family:Roboto Black;-inkscape-font-specification:Roboto Black"
       x="786.56946"
       y="-280.5538"
       id="text4128"
       sodipodi:linespacing="125%"><tspan
         sodipodi:role="line"
         id="tspan4130"
         x="786.56946"
         y="-280.5538">Thinking</tspan></text>
    <text
       xml:space="preserve"
       style="font-size:79.22102356px;font-style:normal;font-variant:normal;font-weight:normal;font-stretch:normal;line-height:125%;letter-spacing:0px;word-spacing:0px;fill:#ffd05b;fill-opacity:1;stroke:none;font-family:Roboto Black;-inkscape-font-specification:Roboto Black"
       x="1472.9294"
       y="-211.80898"
       id="text4128-0-0"
       sodipodi:linespacing="125%"
       transform="matrix(0.99999989,-4.6759879e-4,4.6759879e-4,0.99999989,0,0)"><tspan
         sodipodi:role="line"
         id="tspan4130-2-2"
         x="1472.9294"
         y="-211.80898">B</tspan><tspan
         sodipodi:role="line"
         x="1472.9294"
         y="-112.7827"
         id="tspan4285" /><tspan
         sodipodi:role="line"
         x="1472.9294"
         y="-13.756416"
         id="tspan4287" /></text>
    <text
       xml:space="preserve"
       style="font-size:88.13941193px;font-style:normal;font-variant:normal;font-weight:normal;font-stretch:normal;line-height:125%;letter-spacing:0px;word-spacing:0px;fill:#ffd05b;fill-opacity:1;stroke:none;font-family:Roboto Black;-inkscape-font-specification:Roboto Black"
       x="1473.7988"
       y="-266.57452"
       id="text4128-0-0-4"
       sodipodi:linespacing="125%"
       transform="matrix(0.99999989,-4.6759879e-4,4.6759879e-4,0.99999989,0,0)"><tspan
         sodipodi:role="line"
         id="tspan4130-2-2-8"
         x="1473.7988"
         y="-266.57452" /><tspan
         sodipodi:role="line"
         x="1473.7988"
         y="-156.40025"
         id="tspan4285-6">o</tspan><tspan
         sodipodi:role="line"
         x="1473.7988"
         y="-46.225994"
         id="tspan4287-5" /></text>
    <text
       xml:space="preserve"
       style="font-size:84.89434814px;font-style:normal;font-variant:normal;font-weight:normal;font-stretch:normal;line-height:125%;letter-spacing:0px;word-spacing:0px;fill:#ffd05b;fill-opacity:1;stroke:none;font-family:Roboto Black;-inkscape-font-specification:Roboto Black"
       x="1477.4354"
       y="-312.34433"
       id="text4128-0-0-0"
       sodipodi:linespacing="125%"
       transform="matrix(0.99999989,-4.6759879e-4,4.6759879e-4,0.99999989,0,0)"><tspan
         sodipodi:role="line"
         id="tspan4130-2-2-9"
         x="1477.4354"
         y="-312.34433" /><tspan
         sodipodi:role="line"
         x="1477.4354"
         y="-206.22641"
         id="tspan4285-0" /><tspan
         sodipodi:role="line"
         x="1477.4354"
         y="-100.10847"
         id="tspan4287-0">x</tspan></text>
  </g>
</svg>
