<?xml version="1.0" encoding="UTF-8" standalone="no"?>
<!-- Generator: Adobe Illustrator 19.0.0, SVG Export Plug-In . SVG Version: 6.00 Build 0)  -->

<svg
   xmlns:dc="http://purl.org/dc/elements/1.1/"
   xmlns:cc="http://creativecommons.org/ns#"
   xmlns:rdf="http://www.w3.org/1999/02/22-rdf-syntax-ns#"
   xmlns:svg="http://www.w3.org/2000/svg"
   xmlns="http://www.w3.org/2000/svg"
   xmlns:sodipodi="http://sodipodi.sourceforge.net/DTD/sodipodi-0.dtd"
   xmlns:inkscape="http://www.inkscape.org/namespaces/inkscape"
   version="1.1"
   id="Layer_1"
   x="0px"
   y="0px"
   viewBox="0 0 473.931 473.931"
   xml:space="preserve"
   inkscape:version="0.48.5 r10040"
   width="100%"
   height="100%"
   sodipodi:docname="bomb.svg"
   style="enable-background:new 0 0 473.931 473.931;"><metadata
   id="metadata75"><rdf:RDF><cc:Work
       rdf:about=""><dc:format>image/svg+xml</dc:format><dc:type
         rdf:resource="http://purl.org/dc/dcmitype/StillImage" /></cc:Work></rdf:RDF></metadata><defs
   id="defs73" /><sodipodi:namedview
   pagecolor="#ffffff"
   bordercolor="#666666"
   borderopacity="1"
   objecttolerance="10"
   gridtolerance="10"
   guidetolerance="10"
   inkscape:pageopacity="0"
   inkscape:pageshadow="2"
   inkscape:window-width="1920"
   inkscape:window-height="1018"
   id="namedview71"
   showgrid="false"
   inkscape:zoom="1.0236947"
   inkscape:cx="360.88705"
   inkscape:cy="176.72042"
   inkscape:window-x="-8"
   inkscape:window-y="-8"
   inkscape:window-maximized="1"
   inkscape:current-layer="Layer_1" />

<circle
   style="fill:#ffffff"
   cx="236.966"
   cy="260.651"
   r="122.228"
   id="circle5"
   sodipodi:cx="236.966"
   sodipodi:cy="260.651"
   sodipodi:rx="122.228"
   sodipodi:ry="122.228"
   transform="matrix(1.4694305,0,0,1.4694305,-112.47274,-96.702508)" />
<g
   id="g7"
   transform="matrix(1.4694305,0,0,1.4694305,-112.47274,-96.702508)"
   style="fill:#ffffff">
	<path
   style="fill:#ffffff"
   d="m 233.052,127.029 c -3.098,0 -5.613,-2.518 -5.613,-5.613 v -1.429 c -0.015,-11.308 -0.022,-21.987 6.907,-28.928 4.333,-4.333 10.642,-6.44 19.285,-6.44 h 51.135 c 3.098,0 5.613,2.514 5.613,5.613 0,3.098 -2.514,5.613 -5.613,5.613 h -51.135 c -5.519,0 -9.223,1.029 -11.341,3.147 -3.648,3.652 -3.641,11.682 -3.626,20.984 v 1.441 c 0,3.094 -2.514,5.612 -5.612,5.612 z"
   id="path9"
   inkscape:connector-curvature="0" />
	<path
   style="fill:#ffffff"
   d="m 257.066,84.62 h -3.435 c -4.318,0 -8.06,0.528 -11.255,1.594 l 5.246,8.576 9.444,-10.17 z"
   id="path11"
   inkscape:connector-curvature="0" />
	<polygon
   style="fill:#ffffff"
   points="267.891,84.62 257.459,95.845 266.926,95.845 277.347,84.62 "
   id="polygon13" />
	<path
   style="fill:#ffffff"
   d="m 227.439,119.987 v 1.429 c 0,3.094 2.514,5.613 5.613,5.613 3.098,0 5.613,-2.518 5.613,-5.613 v -1.441 c -0.007,-1.313 0,-2.589 0.007,-3.847 L 228,106.083 c -0.538,4.366 -0.568,9.066 -0.561,13.904 z"
   id="path15"
   inkscape:connector-curvature="0" />
	<polygon
   style="fill:#ffffff"
   points="288.168,84.62 277.747,95.845 287.528,95.845 297.949,84.62 "
   id="polygon17" />
	<path
   style="fill:#ffffff"
   d="m 234.346,91.056 c -1.826,1.826 -3.143,3.929 -4.135,6.215 l 9.141,8.606 c 0.415,-2.376 1.089,-4.374 2.163,-5.878 l -6.073,-9.912 c -0.366,0.314 -0.748,0.625 -1.096,0.969 z"
   id="path19"
   inkscape:connector-curvature="0" />
	<path
   style="fill:#ffffff"
   d="m 307.887,85.567 -9.538,10.275 h 6.417 c 3.098,0 5.613,-2.514 5.613,-5.613 0,-1.942 -0.988,-3.656 -2.492,-4.662 z"
   id="path21"
   inkscape:connector-curvature="0" />
</g>
<g
   id="g23"
   transform="matrix(1.4694305,0,0,1.4694305,-112.47274,-96.702508)"
   style="fill:#ffffff">
	<path
   style="fill:#ffffff"
   d="m 304.766,84.62 h -6.817 l -10.421,11.225 h 10.825 l 9.538,-10.275 c -0.895,-0.602 -1.968,-0.95 -3.125,-0.95 z"
   id="path25"
   inkscape:connector-curvature="0" />
	<polygon
   style="fill:#ffffff"
   points="277.347,84.62 266.926,95.845 277.747,95.845 288.168,84.62 "
   id="polygon27" />
	<path
   style="fill:#ffffff"
   d="m 257.066,84.62 -9.44,10.17 -5.246,-8.576 c -2.69,0.898 -4.977,2.2 -6.937,3.873 l 6.073,9.912 c 0.247,-0.348 0.483,-0.715 0.775,-1.01 2.118,-2.114 5.826,-3.147 11.341,-3.147 h 3.828 l 10.428,-11.225 h -10.821 v 0.003 z"
   id="path29"
   inkscape:connector-curvature="0" />
	<path
   style="fill:#ffffff"
   d="m 228,106.083 10.671,10.047 c 0.03,-3.82 0.168,-7.308 0.681,-10.249 l -9.141,-8.606 c -1.163,2.679 -1.821,5.653 -2.211,8.808 z"
   id="path31"
   inkscape:connector-curvature="0" />
</g>
<path
   style="fill:#ffffff"
   d="m 285.87665,130.10556 c 0,14.92795 -108.12805,14.92795 -108.12805,0 V 98.841961 c 0,-14.933821 12.10223,-27.034586 27.0287,-27.034586 h 54.06916 c 14.92795,0 27.02871,12.102226 27.02871,27.034586 v 31.263599 z"
   id="path33"
   inkscape:connector-curvature="0" />
<polygon
   style="fill:#ffffff"
   points="301.384,112.754 296.755,97.877 281.871,93.241 294.6,84.246 294.405,68.658 306.892,77.978 321.657,72.972 316.65,87.741 325.967,100.227 310.386,100.032 "
   id="polygon35"
   transform="matrix(1.4694305,0,0,1.4694305,-112.47274,-96.702508)" />
<polygon
   style="fill:#ffffff"
   points="303.446,103.067 300.624,94.004 291.562,91.187 299.307,85.709 299.184,76.216 306.798,81.896 315.786,78.846 312.733,87.834 318.413,95.441 308.923,95.321 "
   id="polygon37"
   transform="matrix(1.4694305,0,0,1.4694305,-112.47274,-96.702508)" />

<g
   id="g41">
</g>
<g
   id="g43">
</g>
<g
   id="g45">
</g>
<g
   id="g47">
</g>
<g
   id="g49">
</g>
<g
   id="g51">
</g>
<g
   id="g53">
</g>
<g
   id="g55">
</g>
<g
   id="g57">
</g>
<g
   id="g59">
</g>
<g
   id="g61">
</g>
<g
   id="g63">
</g>
<g
   id="g65">
</g>
<g
   id="g67">
</g>
<g
   id="g69">
</g>
</svg>