<?xml version="1.0" encoding="UTF-8" standalone="no"?>
<!-- Generator: Adobe Illustrator 19.0.0, SVG Export Plug-In . SVG Version: 6.00 Build 0)  -->

<svg
   xmlns:dc="http://purl.org/dc/elements/1.1/"
   xmlns:cc="http://creativecommons.org/ns#"
   xmlns:rdf="http://www.w3.org/1999/02/22-rdf-syntax-ns#"
   xmlns:svg="http://www.w3.org/2000/svg"
   xmlns="http://www.w3.org/2000/svg"
   xmlns:sodipodi="http://sodipodi.sourceforge.net/DTD/sodipodi-0.dtd"
   xmlns:inkscape="http://www.inkscape.org/namespaces/inkscape"
   version="1.1"
   id="Capa_1"
   x="0px"
   y="0px"
   viewBox="0 0 33.02705 32.028533"
   xml:space="preserve"
   inkscape:version="0.48.5 r10040"
   width="100%"
   height="100%"
   sodipodi:docname="calcu.svg"><metadata
   id="metadata63"><rdf:RDF><cc:Work
       rdf:about=""><dc:format>image/svg+xml</dc:format><dc:type
         rdf:resource="http://purl.org/dc/dcmitype/StillImage" /></cc:Work></rdf:RDF></metadata><defs
   id="defs61" /><sodipodi:namedview
   pagecolor="#ffffff"
   bordercolor="#666666"
   borderopacity="1"
   objecttolerance="10"
   gridtolerance="10"
   guidetolerance="10"
   inkscape:pageopacity="0"
   inkscape:pageshadow="2"
   inkscape:window-width="1920"
   inkscape:window-height="1018"
   id="namedview59"
   showgrid="false"
   inkscape:zoom="7.591986"
   inkscape:cx="-0.96459583"
   inkscape:cy="-0.078568978"
   inkscape:window-x="-8"
   inkscape:window-y="-8"
   inkscape:window-maximized="1"
   inkscape:current-layer="Capa_1"
   fit-margin-top="0"
   fit-margin-left="0"
   fit-margin-right="0"
   fit-margin-bottom="0" />




<path
   style="fill:#ffffff;fill-opacity:1;stroke:#ffffff;stroke-width:0.88442480999999984;stroke-opacity:1"
   d="m 31.64461,29.604519 -11.319533,0.03684 c -0.520697,0.0017 -0.944666,-0.418584 -0.946364,-0.940224 -0.0017,-0.521642 0.419527,-0.944669 0.940224,-0.946365 l 11.319532,-0.03684 c 0.520699,-0.0017 0.944667,0.418581 0.946364,0.940224 0.0017,0.521641 -0.419525,0.944668 -0.940223,0.946364 z"
   id="path11"
   inkscape:connector-curvature="0" />
<path
   style="fill:#ffffff;fill-opacity:1;stroke:#ffffff;stroke-width:0.88442480999999984;stroke-opacity:1"
   d="m 31.626189,23.944753 -11.319531,0.03684 c -0.520699,0.0017 -0.944666,-0.418581 -0.946364,-0.940223 -0.0017,-0.521641 0.419525,-0.94467 0.940224,-0.946365 l 11.319531,-0.03684 c 0.520698,-0.0017 0.944666,0.418584 0.946365,0.940225 0.0017,0.521643 -0.419526,0.944669 -0.940225,0.946364 z"
   id="path13"
   inkscape:connector-curvature="0" />
<path
   style="fill:#ffffff;fill-opacity:1;stroke:#ffffff;stroke-width:0.88442480999999984;stroke-opacity:1"
   d="m 7.1097475,26.854458 c -0.241483,7.87e-4 -0.483267,-0.09087 -0.667809,-0.274217 -0.370028,-0.367626 -0.371964,-0.96379 -0.0043,-1.333817 L 11.13876,20.514603 c 0.367627,-0.370029 0.96379,-0.371964 1.333816,-0.0043 0.370029,0.367627 0.371965,0.96379 0.0043,1.333818 l -4.7011215,4.731821 c -0.183344,0.18454 -0.424527,0.277771 -0.666009,0.278559 z"
   id="path15"
   inkscape:connector-curvature="0" />
<path
   style="fill:#ffffff;fill-opacity:1;stroke:#ffffff;stroke-width:0.88442480999999984;stroke-opacity:1"
   d="m 2.4086265,31.58628 c -0.241483,7.84e-4 -0.483267,-0.09087 -0.667809,-0.274216 -0.370028,-0.367628 -0.371967,-0.963791 -0.0043,-1.333818 l 4.701122,-4.731822 c 0.367628,-0.370028 0.963789,-0.371964 1.333818,-0.0043 0.370028,0.367627 0.371964,0.96379 0.0043,1.333817 l -4.701121,4.731822 c -0.183345,0.18454 -0.424526,0.27777 -0.666008,0.278558 z"
   id="path17"
   inkscape:connector-curvature="0" />
<path
   style="fill:#ffffff;fill-opacity:1;stroke:#ffffff;stroke-width:0.88442480999999984;stroke-opacity:1"
   d="m 11.841569,31.555578 c -0.241482,7.87e-4 -0.483267,-0.09087 -0.667807,-0.274214 L 6.4419385,26.580241 c -0.370028,-0.367626 -0.371964,-0.96379 -0.0043,-1.333817 0.367628,-0.370028 0.963789,-0.371964 1.333818,-0.0043 l 4.7318205,4.70112 c 0.370029,0.367627 0.371965,0.963792 0.0043,1.33382 -0.183343,0.184539 -0.424524,0.27777 -0.666007,0.278558 z"
   id="path19"
   inkscape:connector-curvature="0" />
<path
   style="fill:#ffffff;fill-opacity:1;stroke:#ffffff;stroke-width:0.88442480999999984;stroke-opacity:1"
   d="m 7.1097475,26.854458 c -0.241483,7.87e-4 -0.483267,-0.09087 -0.667809,-0.274217 L 1.7101175,21.87912 c -0.370029,-0.367626 -0.371965,-0.96379 -0.0043,-1.333816 0.367628,-0.370029 0.963792,-0.371966 1.333819,-0.0043 l 4.731822,4.701122 c 0.370028,0.367627 0.371964,0.96379 0.0043,1.333817 -0.183344,0.18454 -0.424527,0.277771 -0.666009,0.278559 z"
   id="path21"
   inkscape:connector-curvature="0" />
<path
   style="fill:#ffffff;fill-opacity:1;stroke:#ffffff;stroke-width:0.88442480999999984;stroke-opacity:1"
   d="m 12.708112,7.9701505 -11.3195305,0.03684 c -0.52069997,0.0017 -0.94466597,-0.41858 -0.94636397,-0.940223 -0.0017,-0.521643 0.419525,-0.944669 0.94022297,-0.946364 l 11.3195325,-0.03684 c 0.520698,-0.0017 0.944667,0.418582 0.946364,0.940225 0.0017,0.521641 -0.419525,0.944669 -0.940225,0.946363 z"
   id="path23"
   inkscape:connector-curvature="0" />
<path
   style="fill:#ffffff;fill-opacity:1;stroke:#ffffff;stroke-width:0.88442480999999984;stroke-opacity:1"
   d="m 7.0667675,13.648338 c -0.520699,0.0017 -0.944667,-0.418583 -0.946365,-0.940223 L 6.0835625,1.3885815 c -0.0017,-0.52164096 0.419527,-0.94466896 0.940224,-0.94636396 0.520699,-0.0017 0.944667,0.418583 0.946364,0.94022396 l 0.03684,11.3195325 c 0.0017,0.521641 -0.419525,0.944669 -0.940224,0.946364 z"
   id="path25"
   inkscape:connector-curvature="0" />
<path
   style="fill:#ffffff;fill-opacity:1;stroke:#ffffff;stroke-width:0.88442480999999984;stroke-opacity:1"
   d="m 31.573998,7.9087505 -11.319531,0.03684 c -0.520699,0.0017 -0.944667,-0.418583 -0.946365,-0.940224 -0.0017,-0.521644 0.419527,-0.94467 0.940225,-0.946365 l 11.319532,-0.03684 c 0.520697,-0.0017 0.944665,0.418582 0.946363,0.940225 0.0017,0.521642 -0.419526,0.944668 -0.940224,0.946364 z"
   id="path27"
   inkscape:connector-curvature="0" />
<g
   id="g29"
   transform="translate(-11.863711,-9.8905845)">
</g>
<g
   id="g31"
   transform="translate(-11.863711,-9.8905845)">
</g>
<g
   id="g33"
   transform="translate(-11.863711,-9.8905845)">
</g>
<g
   id="g35"
   transform="translate(-11.863711,-9.8905845)">
</g>
<g
   id="g37"
   transform="translate(-11.863711,-9.8905845)">
</g>
<g
   id="g39"
   transform="translate(-11.863711,-9.8905845)">
</g>
<g
   id="g41"
   transform="translate(-11.863711,-9.8905845)">
</g>
<g
   id="g43"
   transform="translate(-11.863711,-9.8905845)">
</g>
<g
   id="g45"
   transform="translate(-11.863711,-9.8905845)">
</g>
<g
   id="g47"
   transform="translate(-11.863711,-9.8905845)">
</g>
<g
   id="g49"
   transform="translate(-11.863711,-9.8905845)">
</g>
<g
   id="g51"
   transform="translate(-11.863711,-9.8905845)">
</g>
<g
   id="g53"
   transform="translate(-11.863711,-9.8905845)">
</g>
<g
   id="g55"
   transform="translate(-11.863711,-9.8905845)">
</g>
<g
   id="g57"
   transform="translate(-11.863711,-9.8905845)">
</g>
</svg>