<?xml version="1.0" encoding="UTF-8" standalone="no"?>
<!-- Generator: Adobe Illustrator 19.0.0, SVG Export Plug-In . SVG Version: 6.00 Build 0)  -->

<svg
   xmlns:dc="http://purl.org/dc/elements/1.1/"
   xmlns:cc="http://creativecommons.org/ns#"
   xmlns:rdf="http://www.w3.org/1999/02/22-rdf-syntax-ns#"
   xmlns:svg="http://www.w3.org/2000/svg"
   xmlns="http://www.w3.org/2000/svg"
   xmlns:sodipodi="http://sodipodi.sourceforge.net/DTD/sodipodi-0.dtd"
   xmlns:inkscape="http://www.inkscape.org/namespaces/inkscape"
   version="1.1"
   id="Layer_1"
   x="0px"
   y="0px"
   viewBox="0 0 286.054 286.054"
   style="enable-background:new 0 0 286.054 286.054;"
   xml:space="preserve"
   inkscape:version="0.48.5 r10040"
   width="100%"
   height="100%"
   sodipodi:docname="clown.svg"><metadata
   id="metadata41"><rdf:RDF><cc:Work
       rdf:about=""><dc:format>image/svg+xml</dc:format><dc:type
         rdf:resource="http://purl.org/dc/dcmitype/StillImage" /></cc:Work></rdf:RDF></metadata><defs
   id="defs39" /><sodipodi:namedview
   pagecolor="#ffffff"
   bordercolor="#666666"
   borderopacity="1"
   objecttolerance="10"
   gridtolerance="10"
   guidetolerance="10"
   inkscape:pageopacity="0"
   inkscape:pageshadow="2"
   inkscape:window-width="1920"
   inkscape:window-height="1018"
   id="namedview37"
   showgrid="false"
   inkscape:zoom="1.9894052"
   inkscape:cx="213.60717"
   inkscape:cy="111.28473"
   inkscape:window-x="-8"
   inkscape:window-y="-8"
   inkscape:window-maximized="1"
   inkscape:current-layer="Layer_1" />
<g
   id="g3"
   style="fill:#ffffff">
	<path
   style="fill:#ffffff"
   d="M277.115,107.27H223.48c-4.943,0-8.939,3.996-8.939,8.939v53.635c0,4.943,3.996,8.939,8.939,8.939   h53.635c4.943,0,8.939-3.996,8.939-8.939v-53.635C286.054,111.266,282.058,107.27,277.115,107.27z M277.115,0H223.48   c-4.943,0-8.939,4.005-8.939,8.939v53.635c0,4.943,3.996,8.939,8.939,8.939h53.635c4.943,0,8.939-3.996,8.939-8.939V8.939   C286.054,4.005,282.058,0,277.115,0z M62.574,0H8.939C4.005,0,0,4.005,0,8.939v53.635c0,4.943,4.005,8.939,8.939,8.939h53.635   c4.934,0,8.939-3.996,8.939-8.939V8.939C71.513,4.005,67.509,0,62.574,0z M62.574,107.27H8.939c-4.934,0-8.939,3.996-8.939,8.939   v53.635c0,4.943,4.005,8.939,8.939,8.939h53.635c4.934,0,8.939-3.996,8.939-8.939v-53.635   C71.513,111.266,67.509,107.27,62.574,107.27z M277.115,214.54H223.48c-4.943,0-8.939,3.996-8.939,8.939v53.635   c0,4.943,3.996,8.939,8.939,8.939h53.635c4.943,0,8.939-3.996,8.939-8.939V223.48C286.054,218.536,282.058,214.54,277.115,214.54z    M62.574,214.54H8.939c-4.934,0-8.939,3.996-8.939,8.94v53.635c0,4.943,4.005,8.939,8.939,8.939h53.635   c4.934,0,8.939-3.996,8.939-8.939V223.48C71.513,218.536,67.509,214.54,62.574,214.54z M169.844,107.27h-53.635   c-4.934,0-8.939,3.996-8.939,8.939v53.635c0,4.943,4.005,8.939,8.939,8.939h53.635c4.943,0,8.939-3.996,8.939-8.939v-53.635   C178.784,111.266,174.788,107.27,169.844,107.27z M169.844,0h-53.635c-4.934,0-8.939,4.005-8.939,8.939v53.635   c0,4.943,4.005,8.939,8.939,8.939h53.635c4.943,0,8.939-3.996,8.939-8.939V8.939C178.784,4.005,174.788,0,169.844,0z    M169.844,214.54h-53.635c-4.934,0-8.939,3.996-8.939,8.939v53.635c0,4.943,4.005,8.939,8.939,8.939h53.635   c4.943,0,8.939-3.996,8.939-8.939V223.48C178.784,218.536,174.788,214.54,169.844,214.54z"
   id="path5" />
</g>
<g
   id="g7">
</g>
<g
   id="g9">
</g>
<g
   id="g11">
</g>
<g
   id="g13">
</g>
<g
   id="g15">
</g>
<g
   id="g17">
</g>
<g
   id="g19">
</g>
<g
   id="g21">
</g>
<g
   id="g23">
</g>
<g
   id="g25">
</g>
<g
   id="g27">
</g>
<g
   id="g29">
</g>
<g
   id="g31">
</g>
<g
   id="g33">
</g>
<g
   id="g35">
</g>
</svg>