<?xml version="1.0" encoding="UTF-8" standalone="no"?>
<!-- Generator: Adobe Illustrator 19.1.0, SVG Export Plug-In . SVG Version: 6.00 Build 0)  -->

<svg
   xmlns:dc="http://purl.org/dc/elements/1.1/"
   xmlns:cc="http://creativecommons.org/ns#"
   xmlns:rdf="http://www.w3.org/1999/02/22-rdf-syntax-ns#"
   xmlns:svg="http://www.w3.org/2000/svg"
   xmlns="http://www.w3.org/2000/svg"
   xmlns:sodipodi="http://sodipodi.sourceforge.net/DTD/sodipodi-0.dtd"
   xmlns:inkscape="http://www.inkscape.org/namespaces/inkscape"
   version="1.1"
   id="Capa_1"
   x="0px"
   y="0px"
   viewBox="0 0 478.703 478.703"
   style="enable-background:new 0 0 478.703 478.703;"
   xml:space="preserve"
   inkscape:version="0.48.5 r10040"
   width="100%"
   height="100%"
   sodipodi:docname="settings.svg"><metadata
   id="metadata45"><rdf:RDF><cc:Work
       rdf:about=""><dc:format>image/svg+xml</dc:format><dc:type
         rdf:resource="http://purl.org/dc/dcmitype/StillImage" /></cc:Work></rdf:RDF></metadata><defs
   id="defs43">
	

		
		
	</defs><sodipodi:namedview
   pagecolor="#ffffff"
   bordercolor="#666666"
   borderopacity="1"
   objecttolerance="10"
   gridtolerance="10"
   guidetolerance="10"
   inkscape:pageopacity="0"
   inkscape:pageshadow="2"
   inkscape:window-width="1920"
   inkscape:window-height="1018"
   id="namedview41"
   showgrid="false"
   inkscape:zoom="0.84060145"
   inkscape:cx="88.788324"
   inkscape:cy="256.75123"
   inkscape:window-x="-8"
   inkscape:window-y="-8"
   inkscape:window-maximized="1"
   inkscape:current-layer="Capa_1" />
<path
   d="m 454.2,189.101 -33.6,-5.7 c -3.5,-11.3 -8,-22.2 -13.5,-32.6 l 19.8,-27.7 c 8.4,-11.8 7.1,-27.9 -3.2,-38.1 l -29.8,-29.8 c -5.6,-5.6 -13,-8.7 -20.9,-8.7 -6.2,0 -12.1,1.9 -17.1,5.5 l -27.8,19.8 c -10.8,-5.7 -22.1,-10.4 -33.8,-13.9 l -5.6,-33.2 c -2.4,-14.3 -14.7,-24.7 -29.2,-24.7 h -42.1 c -14.5,0 -26.8,10.4 -29.2,24.7 l -5.8,34 c -11.2,3.5 -22.1,8.1 -32.5,13.7 l -27.5,-19.8 c -5,-3.6 -11,-5.5 -17.2,-5.5 -7.9,0 -15.4,3.1 -20.9,8.7 l -29.9,29.8 c -10.2,10.2 -11.6,26.3 -3.2,38.1 l 20,28.1 c -5.5,10.5 -9.9,21.4 -13.3,32.7 l -33.2,5.6 c -14.3,2.4 -24.7,14.7 -24.7,29.2 v 42.1 c 0,14.5 10.4,26.8 24.7,29.2 l 34,5.8 c 3.5,11.2 8.1,22.1 13.7,32.5 l -19.7,27.4 c -8.4,11.8 -7.1,27.9 3.2,38.1 l 29.8,29.8 c 5.6,5.6 13,8.7 20.9,8.7 6.2,0 12.1,-1.9 17.1,-5.5 l 28.1,-20 c 10.1,5.3 20.7,9.6 31.6,13 l 5.6,33.6 c 2.4,14.3 14.7,24.7 29.2,24.7 h 42.2 c 14.5,0 26.8,-10.4 29.2,-24.7 l 5.7,-33.6 c 11.3,-3.5 22.2,-8 32.6,-13.5 l 27.7,19.8 c 5,3.6 11,5.5 17.2,5.5 l 0,0 c 7.9,0 15.3,-3.1 20.9,-8.7 l 29.8,-29.8 c 10.2,-10.2 11.6,-26.3 3.2,-38.1 l -19.8,-27.8 c 5.5,-10.5 10.1,-21.4 13.5,-32.6 l 33.6,-5.6 c 14.3,-2.4 24.7,-14.7 24.7,-29.2 v -42.1 c 0.2,-14.5 -10.2,-26.8 -24.5,-29.2 z m -2.3,71.3 c 0,1.3 -0.9,2.4 -2.2,2.6 l -42,7 c -5.3,0.9 -9.5,4.8 -10.8,9.9 -3.8,14.7 -9.6,28.8 -17.4,41.9 -2.7,4.6 -2.5,10.3 0.6,14.7 l 24.7,34.8 c 0.7,1 0.6,2.5 -0.3,3.4 l -29.8,29.8 c -0.7,0.7 -1.4,0.8 -1.9,0.8 -0.6,0 -1.1,-0.2 -1.5,-0.5 l -34.7,-24.7 c -4.3,-3.1 -10.1,-3.3 -14.7,-0.6 -13.1,7.8 -27.2,13.6 -41.9,17.4 -5.2,1.3 -9.1,5.6 -9.9,10.8 l -7.1,42 c -0.2,1.3 -1.3,2.2 -2.6,2.2 h -42.1 c -1.3,0 -2.4,-0.9 -2.6,-2.2 l -7,-42 c -0.9,-5.3 -4.8,-9.5 -9.9,-10.8 -14.3,-3.7 -28.1,-9.4 -41,-16.8 -2.1,-1.2 -4.5,-1.8 -6.8,-1.8 -2.7,0 -5.5,0.8 -7.8,2.5 l -35,24.9 c -0.5,0.3 -1,0.5 -1.5,0.5 -0.4,0 -1.2,-0.1 -1.9,-0.8 L 75,375.601 c -0.9,-0.9 -1,-2.3 -0.3,-3.4 l 24.6,-34.5 c 3.1,-4.4 3.3,-10.2 0.6,-14.8 -7.8,-13 -13.8,-27.1 -17.6,-41.8 -1.4,-5.1 -5.6,-9 -10.8,-9.9 l -42.3,-7.2 c -1.3,-0.2 -2.2,-1.3 -2.2,-2.6 v -42.1 c 0,-1.3 0.9,-2.4 2.2,-2.6 l 41.7,-7 c 5.3,-0.9 9.6,-4.8 10.9,-10 3.7,-14.7 9.4,-28.9 17.1,-42 2.7,-4.6 2.4,-10.3 -0.7,-14.6 l -24.9,-35 c -0.7,-1 -0.6,-2.5 0.3,-3.4 l 29.8,-29.8 c 0.7,-0.7 1.4,-0.8 1.9,-0.8 0.6,0 1.1,0.2 1.5,0.5 l 34.5,24.6 c 4.4,3.1 10.2,3.3 14.8,0.6 13,-7.8 27.1,-13.8 41.8,-17.6 5.1,-1.4 9,-5.6 9.9,-10.8 l 7.2,-42.3 c 0.2,-1.3 1.3,-2.2 2.6,-2.2 h 42.1 c 1.3,0 2.4,0.9 2.6,2.2 l 7,41.7 c 0.9,5.3 4.8,9.6 10,10.9 15.1,3.8 29.5,9.7 42.9,17.6 4.6,2.7 10.3,2.5 14.7,-0.6 l 34.5,-24.8 c 0.5,-0.3 1,-0.5 1.5,-0.5 0.4,0 1.2,0.1 1.9,0.8 l 29.8,29.8 c 0.9,0.9 1,2.3 0.3,3.4 l -24.7,34.7 c -3.1,4.3 -3.3,10.1 -0.6,14.7 7.8,13.1 13.6,27.2 17.4,41.9 1.3,5.2 5.6,9.1 10.8,9.9 l 42,7.1 c 1.3,0.2 2.2,1.3 2.2,2.6 v 42.1 h -0.1 z"
   id="path7"
   style="fill:#000000;fill-opacity:1;stroke:#000000;stroke-opacity:1"
   inkscape:connector-curvature="0" /><path
   d="m 239.4,136.001 c -57,0 -103.3,46.3 -103.3,103.3 0,57 46.3,103.3 103.3,103.3 57,0 103.3,-46.3 103.3,-103.3 0,-57 -46.3,-103.3 -103.3,-103.3 z m 0,179.6 c -42.1,0 -76.3,-34.2 -76.3,-76.3 0,-42.1 34.2,-76.3 76.3,-76.3 42.1,0 76.3,34.2 76.3,76.3 0,42.1 -34.2,76.3 -76.3,76.3 z"
   id="path9"
   style="fill:#000000;fill-opacity:1;stroke:#000000;stroke-opacity:1"
   inkscape:connector-curvature="0" />
<g
   id="g11">
</g>
<g
   id="g13">
</g>
<g
   id="g15">
</g>
<g
   id="g17">
</g>
<g
   id="g19">
</g>
<g
   id="g21">
</g>
<g
   id="g23">
</g>
<g
   id="g25">
</g>
<g
   id="g27">
</g>
<g
   id="g29">
</g>
<g
   id="g31">
</g>
<g
   id="g33">
</g>
<g
   id="g35">
</g>
<g
   id="g37">
</g>
<g
   id="g39">
</g>
<path
   style="fill:#000000;fill-opacity:1;fill-rule:nonzero;stroke:#000000;stroke-width:3.56887317;stroke-miterlimit:4;stroke-opacity:1;stroke-dasharray:none;stroke-dashoffset:0"
   d="m 216.95144,449.5864 c -0.26375,-0.81787 -2.10202,-11.37191 -4.08502,-23.45342 -2.50403,-15.25597 -4.28884,-22.88765 -5.84255,-24.98211 -1.62737,-2.19378 -6.42117,-4.50108 -17.5883,-8.46546 -8.44315,-2.99734 -19.75577,-7.68148 -25.13917,-10.40921 -9.96716,-5.05026 -15.16971,-6.01125 -19.62753,-3.62551 -1.37091,0.73369 -8.96418,5.98736 -16.87394,11.67482 -7.90976,5.68747 -15.89259,11.33064 -17.73961,12.54038 l -3.35824,2.19953 -15.378347,-15.34422 c -8.458094,-8.43932 -15.378352,-15.79747 -15.378352,-16.35144 0,-0.55399 5.426947,-8.5687 12.059884,-17.8105 6.632935,-9.24179 12.798305,-18.57055 13.700835,-20.73059 2.09261,-5.00834 1.37696,-7.78085 -5.614622,-21.75167 -3.110641,-6.21579 -7.646269,-17.06633 -10.079172,-24.11232 -6.096756,-17.65696 -5.636355,-17.35118 -33.32814,-22.13547 -12.335444,-2.13119 -22.854608,-4.13849 -23.375921,-4.46068 -0.521312,-0.32218 -0.94784,-10.41529 -0.94784,-22.42912 l 0,-21.84332 3.271467,-0.67013 c 1.799307,-0.36855 11.836763,-2.08183 22.305457,-3.80726 10.468695,-1.72542 20.497089,-3.88446 22.285321,-4.79784 3.902013,-1.99306 5.674535,-5.2955 9.170335,-17.08555 1.455007,-4.9072 5.845447,-15.70489 9.756534,-23.99485 5.959351,-12.6315 6.986121,-15.7387 6.339601,-19.18496 -0.47271,-2.51973 -6.008213,-11.42508 -14.293739,-22.99531 L 73.668115,106.67717 89.476564,90.820632 105.28501,74.964099 l 19.349,13.774691 c 23.54579,16.76241 22.8225,16.63509 41.34733,7.278607 7.07385,-3.572845 17.77562,-8.095048 23.78168,-10.049338 6.00609,-1.954289 12.02871,-4.245566 13.38364,-5.091726 3.99929,-2.497605 5.60879,-7.596989 8.94074,-28.327078 1.73522,-10.795841 3.65272,-20.833297 4.26111,-22.305457 1.08722,-2.630823 1.45798,-2.676343 21.65269,-2.658439 11.30059,0.01002 21.15024,0.411518 21.88811,0.892219 0.73788,0.480701 2.77179,9.706963 4.51981,20.502804 3.58168,22.120584 5.58526,28.798867 9.36786,31.224777 1.43831,0.92244 7.92536,3.38348 14.41565,5.468981 6.49029,2.085499 17.76966,6.72751 25.06526,10.315579 7.29559,3.588069 14.29796,6.509721 15.56082,6.492561 3.96086,-0.0538 10.30295,-3.760477 26.91624,-15.731323 8.85336,-6.379361 16.57933,-11.598838 17.16884,-11.598838 0.5895,0 7.95605,6.899528 16.37008,15.332284 l 15.29825,15.332287 -13.82838,19.34783 c -16.73639,23.41652 -16.64438,22.93451 -7.75789,40.64293 3.33878,6.65328 7.9204,17.74412 10.18139,24.6463 4.26114,13.00809 6.23661,16.29363 10.85974,18.06151 2.20711,0.84399 43.4158,8.20216 45.93542,8.20216 0.39031,0 0.70967,10.17129 0.70967,22.60287 0,12.43157 -0.31936,22.60286 -0.70967,22.60286 -2.51962,0 -43.72831,7.35817 -45.93542,8.20216 -4.66586,1.78423 -6.70697,5.19481 -11.15301,18.6361 -2.36761,7.15778 -6.92687,18.15115 -10.13168,24.42967 -8.67402,16.99323 -8.71262,16.79736 7.94494,40.30818 l 13.77187,19.4379 -15.2589,15.3214 c -9.20899,9.2467 -15.97608,15.1399 -17.06773,14.86361 -0.99486,-0.2518 -9.43971,-5.93457 -18.76633,-12.62839 -9.32663,-6.69382 -18.63856,-12.6527 -20.69319,-13.24197 -4.9454,-1.41832 -7.4498,-0.67813 -20.93402,6.18711 -6.26809,3.19127 -16.51768,7.43636 -22.77686,9.43354 -18.93757,6.04257 -18.52947,5.43033 -23.33232,35.00329 -1.80644,11.12299 -3.80296,20.89278 -4.43668,21.71065 -0.84566,1.09137 -6.82082,1.48703 -22.45715,1.48703 -15.99507,0 -21.42443,-0.37062 -21.78448,-1.48703 l 0,0 z M 251.3015,342.77358 c 41.6823,-4.77515 75.93352,-33.60776 88.27239,-74.3075 2.92556,-9.64997 3.24897,-12.52641 3.27695,-29.14579 0.0283,-16.78904 -0.26222,-19.39733 -3.24591,-29.1458 -11.3879,-37.20719 -39.60178,-63.67867 -77.48833,-72.70289 -11.46532,-2.73093 -32.98535,-2.74668 -44.8655,-0.0328 -21.27407,4.85976 -36.27969,13.20193 -51.49408,28.62744 -20.46979,20.75385 -30.33542,44.57738 -30.33542,73.25408 0,26.3633 9.33444,50.83249 26.61047,69.75641 19.89163,21.78899 43.8876,32.7985 75.69723,34.73039 1.63573,0.0993 7.74322,-0.36574 13.5722,-1.03351 z"
   id="path3795"
   inkscape:connector-curvature="0" /><path
   style="fill:#ffffff;fill-opacity:1;fill-rule:nonzero;stroke:#ffffff;stroke-width:3.56887317;stroke-miterlimit:4;stroke-opacity:1;stroke-dasharray:none;stroke-dashoffset:0"
   d="m 212.15237,477.32241 c -8.09758,-1.97135 -16.11872,-8.48736 -20.04146,-16.28081 -1.02776,-2.04187 -3.25988,-11.94549 -4.96026,-22.00805 -1.70041,-10.06254 -3.46226,-18.61386 -3.91526,-19.00293 -0.453,-0.38907 -4.30328,-1.95015 -8.55618,-3.46906 -4.25291,-1.51893 -10.79545,-4.27875 -14.53897,-6.13296 -3.74354,-1.85419 -7.32614,-3.37127 -7.96135,-3.37127 -0.63521,0 -8.23451,5.02769 -16.88734,11.17265 -16.43018,11.66818 -21.08893,13.82671 -29.74858,13.78333 -9.080733,-0.0454 -14.713957,-3.72794 -32.352046,-21.14866 -19.156069,-18.91999 -23.021278,-24.01664 -24.752913,-32.63908 -1.850128,-9.21247 1.002198,-16.25537 13.790603,-34.05144 9.791405,-13.62552 10.468167,-14.93368 9.23163,-17.84437 -0.733895,-1.72753 -3.852339,-9.31648 -6.929872,-16.86437 L 58.934857,295.74199 40.137346,292.5686 C 29.463048,290.76656 19.312323,288.36084 16.648071,287.00163 10.605325,283.91885 3.6785586,275.80212 2.1057067,269.96099 1.3672838,267.2187 1.016252,254.26835 1.2307136,237.68052 l 0.3581421,-27.70095 3.6003215,-5.81922 c 5.6916218,-9.19939 11.1805978,-11.83865 32.0884108,-15.42907 9.814401,-1.68539 18.685199,-3.31057 19.712884,-3.61149 1.02949,-0.30146 2.823864,-3.57785 3.996074,-7.29653 1.170156,-3.71216 3.942808,-10.7327 6.161447,-15.60118 2.21864,-4.86849 4.03389,-9.50808 4.03389,-10.31023 0,-0.80214 -4.308501,-7.47712 -9.574446,-14.83329 C 46.053164,115.35031 44.378419,110.57721 47.971797,98.216426 49.828369,91.83004 51.337118,89.932845 68.01584,73.011793 89.874366,50.835678 93.585301,48.373606 105.08618,48.416963 c 9.89546,0.03731 11.57174,0.825923 29.59569,13.923548 7.16647,5.207725 13.68852,9.721306 14.49343,10.03018 0.80491,0.308873 4.59742,-1.000512 8.42779,-2.909745 3.83037,-1.909233 10.97929,-4.967935 15.88649,-6.797115 4.9072,-1.829181 9.01109,-3.3811 9.11975,-3.448712 0.10861,-0.06761 1.81724,-9.150012 3.79685,-20.183112 3.98862,-22.230008 5.90741,-26.55692 14.55468,-32.8209733 7.19733,-5.21371235 14.76321,-6.27461808 41.33404,-5.79596021 20.77447,0.37423966 23.98931,0.70196611 28.74388,2.93019811 6.36716,2.9839683 12.29214,8.9271564 14.73192,14.7771534 1.38083,3.310927 7.87095,35.697318 7.87095,39.276927 0,0.430198 4.68414,2.535317 10.40921,4.678041 5.72507,2.142724 13.46367,5.42152 17.1969,7.286212 l 6.78768,3.390351 15.22037,-10.852866 c 17.64304,-12.580348 21.14983,-14.289492 29.47238,-14.364278 10.81094,-0.09714 15.89973,3.198075 35.83769,23.206514 9.91418,9.94921 18.92218,19.858081 20.01779,22.019712 2.78261,5.490043 3.6459,14.690342 1.9476,20.756082 -0.81412,2.90775 -6.31369,11.98777 -12.75031,21.05126 l -11.31868,15.93804 4.21039,9.60942 c 2.31572,5.28518 5.46788,12.8214 7.00481,16.74717 l 2.79439,7.13774 18.52432,3.17349 c 24.64484,4.22204 30.97901,7.69114 36.56174,20.02419 2.20583,4.87303 2.42455,7.75471 2.43775,32.11986 0.0139,25.68444 -0.0992,27.00702 -2.79747,32.71467 -5.75312,12.16944 -12.61842,15.74564 -37.83429,19.70822 l -17.47183,2.74563 -3.18836,8.99669 c -1.7536,4.94818 -4.73173,12.05958 -6.61807,15.8031 -1.88633,3.74353 -3.4297,7.40154 -3.4297,8.12893 0,0.72738 4.47593,7.56812 9.9465,15.20164 5.47057,7.63351 10.93968,15.75278 12.15357,18.0428 3.02391,5.70468 2.99554,17.99692 -0.0563,24.38731 -1.27401,2.66773 -10.14415,12.70288 -20.18809,22.83961 -20.11535,20.30116 -24.94322,23.38262 -36.4669,23.27552 -8.17349,-0.076 -10.73861,-1.35785 -29.45197,-14.71828 l -14.69377,-10.49065 -6.71947,3.34774 c -3.6957,1.84126 -10.73445,4.83784 -15.64165,6.65908 -4.9072,1.82123 -9.39014,3.73405 -9.96209,4.25069 -0.57195,0.51665 -2.52693,9.5734 -4.34439,20.12611 -2.60856,15.14609 -3.9602,20.17763 -6.41817,23.89187 -4.20765,6.35818 -11.4621,11.38664 -18.65175,12.92854 -6.57637,1.41037 -48.36716,1.53643 -54.00911,0.1629 l -3e-5,0 z m 7.73256,-25.51542 c 0,-0.25083 -1.0714,-0.73624 -2.38089,-1.07868 -1.30949,-0.34244 -2.08089,-0.13721 -1.71422,0.45606 0.64031,1.03606 4.09511,1.56131 4.09511,0.62262 z m 43.6982,-3.11281 c 0.23411,-2.51435 0.12845,-2.62002 -0.68357,-0.68357 -0.52826,1.25978 -1.99119,2.72271 -3.25097,3.25097 -1.93644,0.81201 -1.83078,0.91768 0.68357,0.68357 2.2164,-0.20636 3.04461,-1.03457 3.25097,-3.25097 z m -48.92758,-5.62594 c -0.39532,-0.3953 -0.67647,0.30733 -0.62482,1.56139 0.0571,1.38585 0.33897,1.66773 0.71873,0.71873 0.34364,-0.85876 0.30139,-1.88482 -0.0939,-2.28012 l -4e-5,0 z M 112.30414,403.35867 c 0.44415,-0.71866 -0.5967,-0.38654 -2.31299,0.73801 -1.7163,1.12457 -3.12053,2.26959 -3.12053,2.5445 0,0.86055 4.58478,-1.90922 5.43352,-3.28251 z M 90.337668,389.88649 C 79.550324,378.99242 74.806156,373.40687 75.433877,372.33953 c 0.506462,-0.86116 2.988886,-4.6439 5.516496,-8.40609 2.527612,-3.76219 4.349434,-6.84034 4.048494,-6.84034 -0.944208,0 -11.437735,15.51122 -11.437735,16.90692 0,1.65634 29.776988,31.86768 31.409518,31.86768 0.65541,0 -5.929433,-7.19154 -14.632982,-15.98121 z m 291.370552,8.02192 7.69819,-7.9593 -7.50296,6.76968 c -4.12663,3.72331 -8.30482,6.76966 -9.28486,6.76966 -0.98005,0 -4.83069,-2.04809 -8.55697,-4.55132 -12.99647,-8.73073 -13.18054,-7.83337 -0.29152,1.42112 4.22025,3.0302 8.2507,5.50945 8.95655,5.50945 0.70585,0 4.74757,-3.58168 8.98157,-7.95929 z m -194.04228,-4.41284 c -1.02455,-0.98365 -15.78535,-6.63903 -16.21271,-6.21167 -0.24544,0.24543 2.92282,1.82446 7.04058,3.50893 6.94435,2.84077 10.36611,3.84905 9.17213,2.70274 l 0,0 z m 110.7342,-2.10406 c 1.24017,-0.76625 0.87733,-0.8599 -1.18962,-0.30702 -1.63573,0.43754 -3.77706,1.29166 -4.7585,1.89805 -1.24017,0.76624 -0.87732,0.85989 1.18963,0.30701 1.63573,-0.43754 3.77705,-1.29165 4.75849,-1.89804 z m 8.32737,-3.36817 c 2.29003,-1.25374 3.62836,-2.27953 2.97407,-2.27953 -0.6543,0 -3.06329,1.02579 -5.35331,2.27953 -2.29003,1.25373 -3.62836,2.27952 -2.97407,2.27952 0.6543,0 3.06329,-1.02579 5.35331,-2.27952 z m -139.18605,-2.84679 c 0,-0.25715 -0.8308,-0.78634 -1.84623,-1.176 -1.05867,-0.40624 -1.53618,-0.20682 -1.11941,0.46753 0.69862,1.1304 2.96564,1.67196 2.96564,0.70847 l 0,0 z m 72.85062,-43.20031 c -1.47978,-0.28455 -3.62111,-0.27375 -4.75849,0.024 -1.13739,0.29775 0.0734,0.53057 2.69052,0.51736 2.61717,-0.0132 3.54776,-0.25682 2.06797,-0.54137 l 0,-2e-5 z M 91.2201,304.66762 c -5.078055,-11.60427 -6.705206,-14.57396 -5.169593,-9.43499 1.287509,4.30869 9.202752,21.5309 9.677366,21.05628 0.221031,-0.22103 -1.807468,-5.45061 -4.507773,-11.62129 z m 167.32763,8.89241 c 20.27943,-4.82121 39.87016,-20.63866 49.22087,-39.74064 11.17454,-22.82773 11.21291,-45.74668 0.1154,-68.88946 -3.84152,-8.01106 -6.74404,-11.94209 -14.57543,-19.74014 -15.37282,-15.30738 -32.27301,-22.30487 -53.9106,-22.32156 -13.52717,-0.0107 -21.09602,1.70075 -33.19368,7.50452 -27.12638,13.01368 -43.37998,38.84693 -43.37998,68.94754 0,29.94804 16.3146,55.89261 43.37998,68.98577 16.45468,7.96012 33.68564,9.68968 52.34347,5.25397 l -3e-5,0 z m 130.27419,-8.63261 c 2.04372,-4.80943 3.52163,-8.93863 3.28424,-9.17602 -0.23739,-0.23739 -2.40514,4.19718 -4.81721,9.8546 -2.41208,5.65742 -3.88999,9.78663 -3.28423,9.17602 0.60574,-0.61061 2.77349,-5.04519 4.8172,-9.8546 z m 5.90136,-15.0481 c 0,-0.65429 -0.51892,-0.38662 -1.15318,0.59482 -0.63426,0.98144 -1.15319,2.31976 -1.15319,2.97406 0,0.65429 0.51893,0.38662 1.15319,-0.59482 0.63426,-0.98144 1.15318,-2.31976 1.15318,-2.97406 z M 47.61245,267.05863 c -0.85876,-0.34365 -1.884812,-0.30139 -2.280114,0.0939 -0.395302,0.3953 0.30732,0.67647 1.561382,0.62481 1.385844,-0.0571 1.667734,-0.33897 0.718732,-0.71872 l 0,5e-5 z m -5.873771,-1.16485 c -0.817867,-0.33001 -2.156194,-0.33001 -2.974061,0 -0.817867,0.33002 -0.148703,0.60004 1.487031,0.60004 1.635733,0 2.304897,-0.27002 1.48703,-0.60004 z m -6.565575,-1.22615 c -1.157465,-0.30162 -2.763458,-0.28179 -3.568873,0.0441 -0.805414,0.32587 0.141603,0.57265 2.104483,0.54841 1.962881,-0.0243 2.621857,-0.29087 1.46439,-0.59249 l 0,-5e-5 z m -6.450085,-1.85226 C 28.193685,261.9975 27.459608,251.69238 27.091738,239.9151 l -0.668856,-21.41324 -0.223362,21.01853 c -0.22114,20.80915 0.156134,24.78201 2.353369,24.78201 0.626256,0 0.702311,-0.66476 0.17013,-1.48703 z M 453.0331,239.09309 c 0.01,-11.57509 -0.38328,-21.29343 -0.874,-21.5963 -0.49072,-0.30288 -0.89222,9.78632 -0.89222,22.42041 0,12.6341 0.3933,22.35243 0.874,21.5963 0.48071,-0.75613 0.88221,-10.84532 0.89222,-22.42041 l 0,0 z M 340.75573,219.41886 c -0.3953,-0.3953 -0.67647,0.30732 -0.62481,1.56138 0.0571,1.38585 0.33897,1.66773 0.71872,0.71873 0.34365,-0.85876 0.30139,-1.88481 -0.0939,-2.28011 l -5e-5,0 z M 78.319629,205.41599 c 0.814523,-0.98144 1.213285,-1.78444 0.886139,-1.78444 -0.327147,0 -1.26124,0.803 -2.075763,1.78444 -0.814523,0.98144 -1.213285,1.78444 -0.886138,1.78444 0.327147,0 1.26124,-0.803 2.075762,-1.78444 z m 8.835086,-22.00805 c 0.552878,-2.06695 0.459237,-2.4298 -0.307011,-1.18963 -0.606389,0.98145 -1.46051,3.12277 -1.898043,4.7585 -0.552878,2.06695 -0.459237,2.4298 0.307011,1.18963 0.60639,-0.98144 1.46051,-3.12277 1.898043,-4.7585 z m 306.283205,1.3218 c -0.7329,-2.10237 -1.54072,-3.61431 -1.79517,-3.35987 -0.25445,0.25444 0.13701,2.18276 0.8699,4.28514 0.73289,2.10237 1.54072,3.61432 1.79517,3.35987 0.25445,-0.25444 -0.13701,-2.18276 -0.8699,-4.28514 z M 94.571214,164.76387 c -0.497753,-0.49775 -6.786866,13.55973 -6.646448,14.8562 0.04848,0.44759 1.664919,-2.61079 3.592091,-6.7964 1.927173,-4.18561 3.301633,-7.81252 3.054357,-8.0598 l 0,0 z m 293.513396,6.88 c -1.74832,-4.03128 -3.36953,-7.13882 -3.60269,-6.90566 -0.23316,0.23316 1.00142,3.72733 2.74352,7.76484 1.74208,4.0375 3.36329,7.14505 3.60268,6.90567 0.23937,-0.23939 -0.99519,-3.73357 -2.74351,-7.76485 z M 85.457376,124.66719 c 0,-0.24703 -0.936829,-1.18386 -2.081843,-2.08184 -1.886811,-1.47974 -1.928888,-1.43766 -0.449148,0.44915 1.554088,1.98162 2.530991,2.6118 2.530991,1.63269 z m 311.681594,-4.90416 c 0.81452,-0.98144 1.21328,-1.78443 0.88614,-1.78443 -0.32715,0 -1.26124,0.80299 -2.07577,1.78443 -0.81452,0.98144 -1.21328,1.78444 -0.88614,1.78444 0.32715,0 1.26124,-0.803 2.07577,-1.78444 z m 5.94812,-8.32737 c 0.81452,-0.98144 1.21329,-1.78443 0.88614,-1.78443 -0.32715,0 -1.26124,0.80299 -2.07576,1.78443 -0.81453,0.98144 -1.21329,1.78444 -0.88614,1.78444 0.32714,0 1.26124,-0.803 2.07576,-1.78444 z M 88.431437,90.617236 c 8.486934,-8.505814 15.163123,-15.465117 14.835973,-15.465117 -0.32714,0 -7.538664,6.959303 -16.025598,15.465117 -8.486933,8.505815 -15.163122,15.465114 -14.835976,15.465114 0.327147,0 7.538667,-6.959299 16.025601,-15.465114 z M 389.40641,88.237987 C 380.91947,79.732173 373.51407,72.77287 372.94997,72.77287 c -1.171,0 -19.8271,12.969332 -19.8271,13.783387 0,0.293504 4.37001,-2.392101 9.71114,-5.968013 7.09968,-4.753276 10.21876,-6.219701 11.59884,-5.453154 1.03823,0.576676 8.03527,7.240393 15.54897,14.808258 7.5137,7.567866 13.92994,13.759752 14.25833,13.759752 0.32838,0 -6.3468,-6.959298 -14.83374,-15.465113 z m -215.77949,2.927478 c 4.83166,-2.315647 7.44652,-3.852179 5.81078,-3.414513 -3.14996,0.842818 -16.57345,7.470208 -15.32777,7.567562 0.40269,0.03147 4.68533,-1.837401 9.51699,-4.153049 l 0,0 z m 134.29022,0.144189 c -2.94432,-1.521122 -6.69164,-3.11546 -8.32737,-3.542973 -1.63574,-0.427513 0.23792,0.796024 4.16368,2.718972 8.44947,4.138784 11.90266,4.822177 4.16369,0.824001 z M 186.57545,85.858739 c 0.98144,-0.634256 1.24911,-1.153191 0.59481,-1.153191 -0.65429,0 -1.99262,0.518935 -2.97406,1.153191 -0.98144,0.634255 -1.2491,1.153191 -0.59481,1.153191 0.65429,0 1.99262,-0.518936 2.97406,-1.153191 z m 108.25582,0.10772 c -0.98144,-0.555252 -3.12276,-1.336662 -4.7585,-1.736465 -2.479,-0.605914 -2.37998,-0.440774 0.59481,0.992067 3.81243,1.836294 7.14764,2.432574 4.16369,0.744398 z m -19.03399,-6.504996 c 0,-0.247032 -0.93683,-1.183862 -2.08184,-2.081843 -1.88682,-1.479734 -1.9289,-1.437657 -0.44916,0.449154 1.55409,1.981614 2.531,2.611795 2.531,1.632694 l 0,-5e-6 z M 266.99902,52.87144 c -0.39531,-0.395301 -0.67647,0.307321 -0.62481,1.561382 0.0571,1.385845 0.33897,1.667735 0.71872,0.718732 0.34365,-0.85876 0.30139,-1.884811 -0.0939,-2.280114 l -5e-5,0 z m -1.18962,-7.137746 c -0.39532,-0.395302 -0.67647,0.30732 -0.62482,1.561382 0.0571,1.385844 0.33897,1.667734 0.71872,0.718732 0.34365,-0.858761 0.3014,-1.884812 -0.0939,-2.280114 l -4e-5,0 z m -53.5331,-3.568873 c -0.39531,-0.395302 -0.67647,0.30732 -0.62482,1.561382 0.0571,1.385844 0.33897,1.667734 0.71873,0.718731 0.34364,-0.85876 0.30139,-1.884811 -0.0939,-2.280113 l -5e-5,0 z m 52.4126,-2.99884 c -0.33001,-0.817867 -0.60003,-0.148703 -0.60003,1.48703 0,1.635734 0.27002,2.304898 0.60003,1.487031 0.33001,-0.817867 0.33001,-2.156194 0,-2.974061 z m -51.22298,-2.949278 c -0.39531,-0.395301 -0.67647,0.307321 -0.62481,1.561382 0.0571,1.385845 0.33897,1.667735 0.71872,0.718732 0.34365,-0.85876 0.30139,-1.884811 -0.0939,-2.280114 l -5e-5,0 z m 49.32294,-6.661429 c -0.85591,-2.251207 -1.99722,-3.130519 -3.91428,-3.01575 -2.62289,0.157024 -2.62748,0.177375 -0.14927,0.66185 1.83643,0.35901 2.81323,1.73791 3.46679,4.893898 0.50049,2.416731 1.11134,3.548888 1.35745,2.515906 0.24612,-1.032982 -0.0962,-3.308139 -0.76069,-5.055904 l 0,0 z M 217.2386,27.864549 c 1.72963,-1.345579 1.73219,-1.48703 0.0269,-1.48703 -2.01751,0 -3.41531,2.518122 -3.19072,5.748011 0.10076,1.449909 0.28811,1.343576 0.69517,-0.394702 0.30645,-1.308586 1.41733,-3.048412 2.46863,-3.866279 l 3e-5,0 z"
   id="path3797"
   inkscape:connector-curvature="0" /></svg>