<?xml version="1.0" encoding="UTF-8" standalone="no"?>
<svg
   xmlns:dc="http://purl.org/dc/elements/1.1/"
   xmlns:cc="http://creativecommons.org/ns#"
   xmlns:rdf="http://www.w3.org/1999/02/22-rdf-syntax-ns#"
   xmlns:svg="http://www.w3.org/2000/svg"
   xmlns="http://www.w3.org/2000/svg"
   xmlns:sodipodi="http://sodipodi.sourceforge.net/DTD/sodipodi-0.dtd"
   xmlns:inkscape="http://www.inkscape.org/namespaces/inkscape"
   version="1.1"
   width="18"
   height="19.91"
   viewBox="0 0 18 19.91"
   id="svg2"
   inkscape:version="0.48.5 r10040"
   sodipodi:docname="share.svg">
  <metadata
     id="metadata10">
    <rdf:RDF>
      <cc:Work
         rdf:about="">
        <dc:format>image/svg+xml</dc:format>
        <dc:type
           rdf:resource="http://purl.org/dc/dcmitype/StillImage" />
      </cc:Work>
    </rdf:RDF>
  </metadata>
  <defs
     id="defs8" />
  <sodipodi:namedview
     pagecolor="#ffffff"
     bordercolor="#666666"
     borderopacity="1"
     objecttolerance="10"
     gridtolerance="10"
     guidetolerance="10"
     inkscape:pageopacity="0"
     inkscape:pageshadow="2"
     inkscape:window-width="1920"
     inkscape:window-height="1018"
     id="namedview6"
     showgrid="false"
     fit-margin-top="0"
     fit-margin-left="0"
     fit-margin-right="0"
     fit-margin-bottom="0"
     inkscape:zoom="20.215027"
     inkscape:cx="23.285546"
     inkscape:cy="10.219472"
     inkscape:window-x="-8"
     inkscape:window-y="-8"
     inkscape:window-maximized="1"
     inkscape:current-layer="svg2" />
  <path
     d="m 14.338677,13.003999 c -0.69391,0 -1.314776,0.273912 -1.789557,0.703041 L 6.0391489,9.9179254 c 0.045652,-0.2099983 0.082174,-0.4199973 0.082174,-0.6391268 0,-0.2191294 -0.036522,-0.4291285 -0.082174,-0.6391276 L 12.476077,4.8870791 c 0.493041,0.4565197 1.141299,0.7395619 1.8626,0.7395619 A 2.7391182,2.7391182 0 0 0 17.077795,2.8875227 2.7391182,2.7391182 0 0 0 14.338677,0.14840445 2.7391182,2.7391182 0 0 0 11.599559,2.8875227 c 0,0.2191295 0.03652,0.4291285 0.08217,0.6391276 L 5.2448047,7.2792423 C 4.7517634,6.8227226 4.1035054,6.5396804 3.3822042,6.5396804 A 2.7391182,2.7391182 0 0 0 0.64308594,9.2787986 2.7391182,2.7391182 0 0 0 3.3822042,12.017916 c 0.7213012,0 1.3695592,-0.283042 1.8626005,-0.739561 l 6.5008403,3.789113 c -0.04565,0.191738 -0.07304,0.392607 -0.07304,0.602606 0,1.469994 1.196082,2.656944 2.666075,2.656944 1.469994,0 2.666075,-1.18695 2.666075,-2.656944 A 2.666075,2.666075 0 0 0 14.33868,13.003999 z"
     id="path4"
     inkscape:connector-curvature="0"
     style="fill:#ffffff" />
</svg>
